<svg width="383" height="77" viewBox="0 0 383 77" fill="none" xmlns="http://www.w3.org/2000/svg">
<path d="M17.3699 38.5L8.72667 47.1465L0 38.5L8.72346 29.7765L17.3699 38.5ZM38.5 17.3699L53.3867 32.2566L62.1133 23.5363L38.5 0L14.8867 23.6133L23.6133 32.3336L38.5 17.3699ZM68.2765 29.7765L59.6301 38.5L68.3535 47.2235L77.0738 38.5L68.2765 29.7765ZM38.5 59.6301L23.6133 44.6664L14.8867 53.3899L38.5 77L62.1133 53.3867L53.3867 44.6664L38.5 59.6301ZM38.5 47.1497L47.2235 38.423L38.5 29.7798L29.7765 38.5L38.5 47.1465V47.1497ZM130.239 48.048V47.9004C130.239 42.2602 127.23 39.4015 122.343 37.5215C125.35 35.8692 127.907 33.1581 127.907 28.4226V28.275C127.907 21.6563 122.568 17.3699 113.995 17.3699H94.3699V59.5563H114.448C123.996 59.6301 130.239 55.7191 130.239 48.0512V48.048ZM118.657 30.0043C118.657 33.1613 116.1 34.4383 111.964 34.4383H103.395V25.4902H112.568C116.479 25.4902 118.657 27.0687 118.657 29.8535V30.0043ZM120.989 46.8481C120.989 50.0051 118.509 51.436 114.444 51.436H103.395V42.1832H114.146C118.885 42.1832 120.989 43.9157 120.989 46.7711V46.8481ZM149.714 59.6301V17.3699H140.39V59.5563H149.714V59.6301ZM199.645 59.6301V17.3699H190.469V43.3895L170.693 17.3699H162.12V59.5563H171.296V32.786L191.749 59.6301H199.642H199.645ZM251.075 59.6301L232.957 17.1453H224.388L206.264 59.6301H215.815L219.649 50.1559H237.471L241.305 59.6301H251.081H251.075ZM234.157 41.9586H222.954L228.594 28.275L234.157 41.9586ZM295.369 59.6301V17.3699H286.193V43.3895L266.417 17.3699H257.844V59.5563H267.02V32.786L287.473 59.6301H295.366H295.369ZM343.266 52.7867L337.327 46.8481C334.016 49.8543 331.084 51.8082 326.198 51.8082C318.979 51.8082 313.942 45.7925 313.942 38.5738V38.3492C313.942 31.1305 319.053 25.1918 326.198 25.1918C330.407 25.1918 333.718 26.9949 337.026 29.9273L342.964 23.084C339.057 19.25 334.318 16.5422 326.348 16.5422C313.416 16.5422 304.317 26.3918 304.317 38.3492V38.5C304.317 50.605 313.563 60.23 325.973 60.23C334.093 60.307 338.906 57.4484 343.266 52.7867ZM382.895 59.6301V51.359H359.959V42.4848H379.886V34.2137H359.959V25.641H382.594V17.3699H350.786V59.5563H382.895V59.6301Z" fill="#F0B90B"/>
</svg>
